<?xml version="1.0" encoding="UTF-8" standalone="no"?>
<svg
   xmlns:dc="http://purl.org/dc/elements/1.1/"
   xmlns:cc="http://creativecommons.org/ns#"
   xmlns:rdf="http://www.w3.org/1999/02/22-rdf-syntax-ns#"
   xmlns:svg="http://www.w3.org/2000/svg"
   xmlns="http://www.w3.org/2000/svg"
   xmlns:sodipodi="http://sodipodi.sourceforge.net/DTD/sodipodi-0.dtd"
   xmlns:inkscape="http://www.inkscape.org/namespaces/inkscape"
   inkscape:version="0.92.3 (2405546, 2018-03-11)"
   sodipodi:docname="iconneu2.svg"
   id="svg39"
   version="1.1"
   viewBox="0 0 48 48">
  <metadata
     id="metadata43">
    <rdf:RDF>
      <cc:Work
         rdf:about="">
        <dc:format>image/svg+xml</dc:format>
        <dc:type
           rdf:resource="http://purl.org/dc/dcmitype/StillImage" />
        <dc:title></dc:title>
      </cc:Work>
    </rdf:RDF>
  </metadata>
  <sodipodi:namedview
     inkscape:current-layer="svg39"
     inkscape:window-maximized="1"
     inkscape:window-y="48"
     inkscape:window-x="0"
     inkscape:cy="24.764984"
     inkscape:cx="15.057595"
     inkscape:zoom="13.171201"
     inkscape:guide-bbox="true"
     showguides="true"
     showgrid="false"
     id="namedview41"
     inkscape:window-height="981"
     inkscape:window-width="1920"
     inkscape:pageshadow="2"
     inkscape:pageopacity="0"
     guidetolerance="10"
     gridtolerance="10"
     objecttolerance="10"
     borderopacity="1"
     bordercolor="#666666"
     pagecolor="#ffffff" />
  <defs
     id="defs7">
    <linearGradient
       gradientTransform="rotate(-90,23.999998,24)"
       gradientUnits="userSpaceOnUse"
       x2="47"
       x1="1"
       id="linearGradient3764">
      <stop
         id="stop2"
         style="stop-color:#39569d;stop-opacity:1" />
      <stop
         id="stop4"
         style="stop-color:#3f5eab;stop-opacity:1"
         offset="1" />
    </linearGradient>
    <linearGradient
       id="linearGradient3764-1"
       x1="1"
       x2="47"
       gradientUnits="userSpaceOnUse"
       gradientTransform="rotate(-90,23.999998,24)">
      <stop
         style="stop-color:#39569d;stop-opacity:1"
         id="stop1068" />
      <stop
         offset="1"
         style="stop-color:#3f5eab;stop-opacity:1"
         id="stop1070" />
    </linearGradient>
    <filter
       inkscape:collect="always"
       style="color-interpolation-filters:sRGB"
       id="filter4996"
       x="-0.1119879"
       width="1.2239758"
       y="-0.16072057"
       height="1.3214411">
      <feGaussianBlur
         inkscape:collect="always"
         stdDeviation="1.2662033"
         id="feGaussianBlur4998" />
    </filter>
  </defs>
  <ellipse
     style="opacity:1;fill:#ffe680"
     id="path98"
     cx="23.877853"
     cy="23.970301"
     rx="23.953777"
     ry="24.029699" />
  <g
     id="g27">
    <g
       id="g25">
      <g
         id="g23"
         transform="translate(1,1)">
        <g
           id="g21"
           style="opacity:0.1">
          <!-- color: #3a569c -->
        </g>
      </g>
    </g>
  </g>
  <g
     id="g31"
     transform="translate(1.5943877,1.8980806)">
    <path
       inkscape:connector-curvature="0"
       id="path29"
       style="opacity:0.1"
       d="m 40.03,7.531 c 3.712,4.084 5.969,9.514 5.969,15.469 0,12.703 -10.297,23 -23,23 C 17.045,46 11.615,43.744 7.53,40.031 11.708,44.322 17.54,47 23.999,47 c 12.703,0 23,-10.298 23,-23 0,-6.462 -2.677,-12.291 -6.969,-16.469 z" />
  </g>
  <text
     id="text880"
     y="41.288948"
     x="139.74899"
     style="font-style:normal;font-weight:normal;font-size:192px;line-height:1.25;font-family:sans-serif;letter-spacing:0px;word-spacing:0px;fill:#000000;fill-opacity:1;stroke:none"
     xml:space="preserve"><tspan
       y="41.288948"
       x="139.74899"
       id="tspan878"
       sodipodi:role="line" /></text>
  <path
     inkscape:connector-curvature="0"
     id="path3728"
     d="M 4.8287258,40.091364 C 4.7321769,39.906876 4.5678883,39.33838 4.4636372,38.828042 4.3593858,38.3177 4.191798,37.522669 4.0912302,37.061306 3.836436,35.892417 3.8497908,34.582568 4.1203819,34.204145 c 0.1850239,-0.258773 0.7076105,-0.349828 2.7796414,-0.484343 2.4815716,-0.161088 2.5601445,-0.154748 2.8559218,0.230471 0.3335979,0.434474 0.5930759,3.245418 0.4850659,5.254745 l -0.06016,1.118454 -2.5883099,0.05165 c -2.3359638,0.04664 -2.6054156,0.01896 -2.7638332,-0.283775 z m 6.5497102,-1.015153 c 0.0092,-0.829706 0.05898,-1.066267 0.169462,-0.80324 0.219113,0.521476 0.219113,1.725598 0,1.864093 -0.114628,0.07244 -0.177518,-0.321252 -0.169462,-1.060853 z m 0.807398,0.967621 c -0.06996,-0.115776 -0.171991,-0.878717 -0.226728,-1.695417 -0.05475,-0.81671 -0.169652,-1.52925 -0.255364,-1.583423 -0.243742,-0.154071 -0.188932,-2.950643 0.06289,-3.208179 0.1531,-0.156581 1.205784,-0.227027 3.508724,-0.234807 1.809502,-0.006 3.70011,-0.09395 4.201352,-0.19516 2.095372,-0.423166 3.332995,-0.521495 7.83767,-0.622724 2.606483,-0.05859 5.467769,-0.154841 6.358413,-0.213932 l 1.619358,-0.107428 -0.08504,2.951898 c -0.06578,2.283368 -0.154931,3.089103 -0.393704,3.557732 -0.169768,0.333205 -0.368078,0.614054 -0.440695,0.624107 -0.07262,0.01002 -2.969748,0.07296 -6.43809,0.139804 -5.212482,0.100452 -6.363104,0.170026 -6.63493,0.40115 -0.267319,0.227287 -1.138894,0.290583 -4.657752,0.338251 -3.075548,0.04167 -4.36572,-0.0029 -4.456098,-0.15187 z m 24.040211,-1.258236 c -0.101138,-0.286218 -0.121225,-0.841954 -0.04554,-1.258263 0.07459,-0.410101 0.189714,-1.574155 0.255821,-2.586781 0.112951,-1.730137 0.154789,-1.878929 0.693838,-2.467711 l 0.573637,-0.626563 2.675179,-0.123044 2.67517,-0.123043 0.127839,0.696906 c 0.113353,0.617963 -0.37403,3.886078 -0.821709,5.509865 -0.179839,0.652303 -0.818034,0.924766 -2.195817,0.937479 -0.65162,0.006 -1.512852,0.131806 -1.913848,0.279553 -1.186264,0.437077 -1.811977,0.3634 -2.024608,-0.238382 z m -0.372371,-4.893248 c 0,-0.871466 0.03141,-1.227972 0.06978,-0.792239 0.03835,0.435731 0.03835,1.148746 0,1.58448 -0.03833,0.435731 -0.06978,0.07923 -0.06978,-0.792241 z M 3.3903079,32.173369 C 3.2853095,32.042296 3.1049978,31.389803 2.9896073,30.723393 2.6048063,28.501071 2.2498421,26.35121 2.135508,25.550533 L 2.0223827,24.75829 h 0.7840062 c 0.4312028,0 0.9150079,-0.121246 1.0751193,-0.269428 0.1991671,-0.184347 0.952013,-0.307102 2.3838703,-0.388708 l 2.0927741,-0.11926 0.308958,0.714916 c 0.1925584,0.445579 0.3569695,1.507117 0.436397,2.81764 0.070094,1.156497 0.1976377,2.147085 0.2834234,2.201313 0.2403475,0.151916 0.1734191,1.622007 -0.089996,1.97643 -0.1697532,0.228402 -0.6204904,0.344058 -1.634647,0.419421 -0.7701432,0.05721 -2.0034532,0.148387 -2.7406738,0.202569 -0.9657785,0.07097 -1.3937714,0.0319 -1.5313165,-0.139808 z m 6.6538551,-0.811893 c -0.075191,-0.07753 -0.134214,-0.357691 -0.1311607,-0.622554 0.0054,-0.422485 0.028739,-0.44082 0.1945297,-0.149479 0.207571,0.364719 0.155592,0.997879 -0.06336,0.772033 z m 2.633267,-0.127823 c -0.107109,-0.131975 -0.252016,-0.699234 -0.322019,-1.26056 -0.140538,-1.126961 -0.333784,-3.277016 -0.820964,-3.708433 -0.505651,-0.447778 0.134598,-1.103441 0.134598,-1.767304 0,-1.719189 0.598453,-0.630609 2.346407,-1.564691 1.098598,-0.587075 0.821003,-2.926733 0.266514,-3.075031 -0.200496,-0.05367 -0.364544,-0.03162 -0.364544,0.04891 0,0.249285 -1.027086,0.596225 -1.575278,0.532108 -0.490499,-0.05739 -0.534774,-0.136941 -0.760115,-1.365786 -0.292313,-1.594117 -0.726823,-4.19495 -0.879767,-5.266073 l -0.113124,-0.79227 h 0.821601 c 0.507955,0 0.90823,-0.106725 1.048519,-0.279617 0.131374,-0.161894 0.528994,-0.279609 0.944433,-0.279609 0.394633,0 0.679857,-0.06291 0.633819,-0.139806 -0.137957,-0.230442 -0.59125,-4.6862704 -0.59125,-5.1662434 0,-1.1215612 -0.203901,-1.4642245 5.848173,-3.5776354 1.503736,-0.5251067 5.159196,5.0897132 5.103184,-0.06683 0.811546,-0.3260552 0.111404,-0.870963 2.132518,-0.9247105 1.187287,0.08332 0.833598,-1.0253972 1.155069,0.2626893 0.09728,0.389812 0.147337,1.7196341 1.039205,0.5087401 0.119142,0.6462733 2.644472,6.5552238 2.792256,7.2151489 l 0.09885,0.441506 2.634044,-0.13467 2.634046,-0.134663 -0.0043,0.532008 c -0.0071,1.068498 -0.533301,5.210201 -0.74251,5.844663 -0.11831,0.358842 -0.309514,0.945116 -0.424871,1.302844 -0.263185,0.816115 -0.827678,1.114223 -2.116547,1.117731 l -1.009099,0.003 -2.406429,0.417864 -0.963888,1.936324 2.867927,-0.303693 c 0.447401,-0.04738 1.597219,-0.09397 2.549589,-0.208849 1.23611,-0.149086 1.787717,-0.151444 1.927737,-0.0083 0.241317,0.246793 -0.129152,4.865255 -0.503366,6.275399 -0.136044,0.512625 -0.28997,1.143428 -0.342057,1.401783 -0.05211,0.258351 -0.265137,0.6568 -0.473422,0.885444 -0.362315,0.397728 -0.509455,0.415711 -3.401367,0.415711 h -3.022671 l 0.112998,-1.724286 c 0.374727,-5.718294 0.374534,-5.616325 0.01062,-5.473503 0.802246,-1.445975 -1.958413,-0.581042 -2.363949,-0.524384 l 0.553371,0.862253 0.182267,2.297105 c 0.100261,1.263416 0.243794,2.359519 0.318974,2.43578 0.226658,0.229909 0.142389,1.637735 -0.119128,1.990168 -0.202395,0.272764 -0.708852,0.359329 -2.95612,0.50528 -2.073032,0.134634 -2.761984,0.122956 -2.9246,-0.04953 -0.117,-0.124119 -0.305516,-0.770907 -0.418931,-1.437327 -0.547417,-3.216573 -0.788012,-4.801603 -0.806389,-5.312661 -0.01893,-0.526833 0.02393,-0.562506 0.740335,-0.615843 0.418252,-0.03111 0.858914,-0.177933 0.97925,-0.326218 0.141229,-0.174035 0.566224,-0.2696 1.198953,-0.2696 1.009541,0 2.936932,-0.148481 2.440984,-0.569433 -0.396161,-0.33624 -1.491507,-1.195587 -1.491507,-1.685578 0,-0.395221 -1.109715,-0.405384 -2.410914,-0.292889 -0.964242,0.08335 -1.400163,0.05134 -1.531303,-0.11244 -0.100758,-0.125983 -0.277676,-0.774276 -0.393071,-1.440689 -0.384793,-2.22232 -0.739765,-4.372173 -0.8541,-5.172857 l -0.113128,-0.792236 h 0.784013 c 0.4312,0 0.913491,-0.11895 1.071758,-0.264367 0.193303,-0.177587 0.975793,-0.304599 2.383879,-0.386936 l 2.09612,-0.122553 0.318975,0.727618 c 0.175435,0.400188 0.683204,4.075692 0.774513,4.52853 0.651202,3.229553 2.243391,2.249847 1.775401,0.643685 2.153597,2.155949 0.687802,-0.750827 0.96396,-1.008923 0.166223,-0.155339 -2.568959,-10.6349896 -2.816125,-10.8877682 -0.169879,-0.1737426 -0.611502,-0.037252 -4.115332,1.2719717 -1.002491,0.3745916 -2.427076,0.9032621 -3.165737,1.1748168 -0.738655,0.2715702 -1.38578,0.6077215 -1.438046,0.7470059 -0.106153,0.282913 0.0811,1.3217368 1.513248,8.3950948 1.280357,6.32363 1.203351,4.969795 -0.08991,6.935269 -0.628627,0.955348 -0.389315,2.678705 -0.373808,4.370996 0.24535,0.155073 0.231316,1.270448 -0.02318,1.841638 -0.183253,0.411334 -0.345588,0.47194 -1.503736,0.561398 -3.864872,0.298555 -4.257616,0.304243 -4.452152,0.06454 z m 6.662574,-0.804223 c -0.07519,-0.07755 -0.136709,-0.311562 -0.136709,-0.520031 0,-0.274347 0.05508,-0.322721 0.199365,-0.175139 0.109658,0.112145 0.171169,0.346151 0.13671,0.520029 -0.0345,0.173877 -0.124186,0.25269 -0.199366,0.175141 z m 8.931294,-0.559224 c -0.07519,-0.07757 -0.134213,-0.357698 -0.131166,-0.622551 0.0054,-0.422487 0.02874,-0.440829 0.194536,-0.149488 0.207569,0.364717 0.1556,0.997879 -0.06336,0.772039 z m 8.678442,-1.803149 c 0.175316,-2.610607 0.553555,-5.796423 0.719291,-6.058302 0.08111,-0.128156 0.279692,-0.233011 0.441319,-0.233011 0.161633,0 0.423357,-0.115822 0.58163,-0.257386 0.203158,-0.18171 1.131767,-0.296056 3.158528,-0.388942 l 2.870773,-0.131566 -0.0043,0.528755 c -0.0071,1.055944 -0.528931,5.279606 -0.692224,5.602857 -0.09218,0.18247 -0.221556,0.637818 -0.287512,1.011887 -0.066,0.37407 -0.287759,0.898347 -0.4929,1.16506 l -0.372963,0.484928 H 39.852277 36.83319 l 0.115798,-1.724283 z M 1.7498634,21.734443 C 1.6448717,21.603367 1.4645599,20.950875 1.3491631,20.28447 0.96436855,18.062147 0.60939765,15.912295 0.49506383,15.111607 L 0.38193704,14.319369 H 1.16595 c 0.431203,0 0.9150012,-0.12123 1.0751127,-0.26943 0.1991738,-0.184344 0.9520195,-0.307095 2.3838797,-0.388706 l 2.0927648,-0.119273 0.3089593,0.714918 c 0.1925641,0.445582 0.3569761,1.507124 0.4363958,2.817642 0.070091,1.156495 0.1976386,2.147089 0.2834252,2.201313 0.2403495,0.151918 0.1734255,1.622007 -0.089993,1.976432 -0.1697544,0.228402 -0.6204859,0.344054 -1.6346479,0.41942 -0.7701434,0.05718 -2.0034539,0.148385 -2.7406744,0.202569 -0.9657789,0.07098 -1.3937717,0.03191 -1.5313166,-0.139814 z m 6.6538532,-0.811885 c -0.075191,-0.07756 -0.1342049,-0.3577 -0.1311595,-0.622557 0.00485,-0.422479 0.028742,-0.440816 0.1945318,-0.149485 0.207575,0.36472 0.1555968,0.997889 -0.063364,0.772042 z M 37.132011,17.255321 c 0.175314,-2.610613 0.553557,-5.796425 0.719285,-6.058309 0.0811,-0.128143 0.279706,-0.233011 0.441328,-0.233011 0.161627,0 0.423354,-0.11582 0.581628,-0.257385 0.203152,-0.181711 1.13177,-0.296067 3.15853,-0.388944 l 2.870777,-0.131563 -0.0043,0.528753 c -0.0071,1.055943 -0.528923,5.279608 -0.692218,5.602857 -0.09219,0.182476 -0.221554,0.63782 -0.287512,1.011892 -0.06599,0.374069 -0.287759,0.898343 -0.4929,1.165056 l -0.372982,0.484929 h -3.019079 -3.019084 l 0.115784,-1.724279 z"
     style="fill:#1053fd;stroke-width:0.18432873"
     sodipodi:nodetypes="csscccccccccccccccccccccsccccccccccccccccccccsccscsccsccccccsccccccccccccsscsccccscscsccccccccccccccccscccccsccccccccscscccscscccscscccssccccccccccccccsccccccccccscsccccccccccccscsccccccscccccccccccscccccccccccc" />
  <ellipse
     style="opacity:0.68000004;fill:#ffffff;filter:url(#filter4996)"
     id="path284"
     cx="10.567943"
     cy="30.576962"
     rx="14.880952"
     ry="7.2127061"
     transform="matrix(0.87389771,-0.49233598,0.46476607,0.9257373,-0.82131497,-3.3466946)" />
  <path
     inkscape:connector-curvature="0"
     id="path3726-3"
     d="m 12.874021,26.955103 c -1.296956,-0.496104 -2.424726,-1.857296 -2.424726,-2.926584 0,-0.822415 0.690279,-2.235279 1.487385,-3.044362 0.481303,-0.488541 1.218431,-0.962688 2.10593,-1.354582 0.90618,-0.400146 1.365438,-0.697736 1.365438,-0.884771 0,-0.155 -0.336571,-1.749832 -0.747932,-3.544058 -0.411367,-1.794228 -1.072529,-4.681692 -1.469263,-6.4165811 -0.396724,-1.734896 -0.721326,-3.3309958 -0.721326,-3.5468924 0,-0.9892581 0.78661,-1.3567878 6.887155,-3.2179308 1.515176,-0.4622415 3.209418,-0.9999903 3.764986,-1.1950031 0.817237,-0.286853 1.489366,-0.3657013 3.520012,-0.4129395 2.289635,-0.053289 2.519058,-0.032416 2.614255,0.2372495 0.05743,0.1626116 0.350543,1.3663584 0.651432,2.6749947 0.300893,1.3086402 1.132661,4.8899636 1.848383,7.9584967 0.991163,4.249476 1.274821,5.755131 1.190184,6.317566 -0.353082,2.346293 -2.721714,4.367224 -5.338599,4.554909 -1.354523,0.09714 -2.266088,-0.142141 -3.133373,-0.82251 -0.872477,-0.684435 -1.168962,-1.265903 -1.166846,-2.288439 0.0041,-1.774383 1.460658,-3.476754 3.779696,-4.416242 0.647493,-0.262315 1.177261,-0.511314 1.177261,-0.553337 0,-0.399533 -1.695153,-7.2437821 -1.822233,-7.3573226 -0.171176,-0.1529427 -0.616158,-0.032793 -4.146631,1.1196915 -1.010123,0.329745 -2.445532,0.795124 -3.18981,1.03417 -0.74428,0.2390522 -1.396322,0.5349642 -1.448982,0.6575762 -0.108295,0.252187 0.100945,1.2607109 1.538517,7.4151339 0.814407,3.486586 1.000057,4.563092 0.936638,5.431392 -0.187748,2.570865 -2.548034,4.536362 -5.624528,4.68376 -0.666085,0.03192 -1.400943,-0.01461 -1.633023,-0.103377 z"
     style="fill:#111215;stroke-width:0.17359968" />
</svg>
